<svg id="Signature_Image" data-name="Signature Image" xmlns="http://www.w3.org/2000/svg" viewBox="0 0 123.19 215.93"><defs><style>.cls-1{fill:#141414;}</style></defs><title>Signature</title><path class="cls-1" d="M139.4,116.22A184.42,184.42,0,0,1,138,137.41a158.12,158.12,0,0,1-6.79,31.78c-3.78,11.59-8.85,22.55-16.19,32.38-5.91,7.91-12.87,14.61-22,18.68a35.68,35.68,0,0,1-24.29,2.17,45.52,45.52,0,0,1-18.3-10c-7.17-6.2-12.55-13.78-17.1-22a128.63,128.63,0,0,1-11.78-30.48c-1.41-5.48-2.45-11.05-3.31-16.65a192.21,192.21,0,0,1-1.29-45,160.63,160.63,0,0,1,2.66-18.24A157.43,157.43,0,0,1,25.69,58,103.22,103.22,0,0,1,43,26.48c6.29-7.65,13.75-13.76,23.3-16.93A35.69,35.69,0,0,1,81.39,7.9c9.42,1,17.25,5.23,24.24,11.43,8.27,7.34,14.07,16.4,18.88,26.2a140.43,140.43,0,0,1,9.36,25.55,141.44,141.44,0,0,1,3.47,17.36A193.92,193.92,0,0,1,139.4,116.22Zm-120.24.08c-.12,4.2.36,9.06.64,13.92a142.93,142.93,0,0,0,1.77,15.22,153.54,153.54,0,0,0,5,20.89A116.79,116.79,0,0,0,40.2,195.94C44.86,203,50.37,209.27,57.46,214c6.54,4.37,13.67,6.87,21.6,6.56a35.53,35.53,0,0,0,17.35-5.52,59.82,59.82,0,0,0,17.8-17.52C125.14,181.66,130.78,163.75,134,145c.92-5.34,1.33-10.76,1.81-16.17,1.28-14.44.29-28.76-1.89-43a147.28,147.28,0,0,0-4.85-20.67,112.57,112.57,0,0,0-14.85-31.41c-4.86-7-10.58-13.24-18-17.65C85,9.37,73.37,8.71,61.6,14.8c-7.55,3.89-13.45,9.68-18.49,16.39C35.07,41.9,29.74,54,26,66.72a149.83,149.83,0,0,0-5.44,27.14A186.78,186.78,0,0,0,19.16,116.3Z" transform="translate(-16.21 -7.7)"/><path class="cls-1" d="M78.81,149.52a24.39,24.39,0,0,0-2.39,5.26c-4.81,11.62-9.47,23.3-14.37,34.89-1.06,2.5-2.57,4.84-3.74,7.33-.28.6-.77.53-1.16.14a3.64,3.64,0,0,1-.83-2.18c-.69-5-1.49-9.9-2.17-14.86-.62-4.59-1.12-9.19-1.7-13.78-.3-2.46-.63-4.91-1-7.36-.89-6.4-1.91-12.78-2.62-19.2-.3-2.62-.83-5.2-1-7.84-.14-2.43-.37-2.51-2.76-2.51H30c-2,0-2,0-2-2q0-5.64,0-11.27c0-.54-.18-1.15.39-1.53a1.23,1.23,0,0,1,1.86,1c.06,1,0,1.92,0,2.88a7.9,7.9,0,0,0,5,7.47,4,4,0,0,0,1.6.37c2.88,0,5.76,0,8.64,0,1.56,0,1.57-.14,1.36-1.71-.65-5-1.27-10-1.92-15-.46-3.56-.84-7.13-1.48-10.66-.53-2.88-1.76-4.75-5.34-4.52-1,.06-1.92,0-2.88,0s-1.35-.46-1.37-1.44.24-1.62,1.46-1.6c4.16,0,8.32,0,12.48,0,2.08,0,4.16,0,6.24,0,1,0,1.49.25,1.45,1.35s-.06,1.74-1.37,1.68c-1.51-.06-3,0-4.55,0-1.69,0-2.35.75-2.13,2.39.61,4.43,1.28,8.84,1.91,13.27.3,2,.56,4.12.75,6.17.26,2.71,1,5.35,1,8.08,0,1.76.26,1.86,2,1.93.16,0,.32,0,.48,0,2.85,0,4.45-1.42,4.74-4.34,0-.48,0-1,0-1.44q0-31,0-61.91a10.38,10.38,0,0,0-.8-4.18,5.32,5.32,0,0,0-3.44-3.08,14.79,14.79,0,0,0-5.4-.68c-.72,0-1.45,0-2.16,0-1.08.08-1.65-.24-1.6-1.45,0-1.4.13-1.54,1.69-1.59h63.59a1.69,1.69,0,0,1,1.51,2.57c-.29.53-.8.46-1.26.46-1.84,0-3.68-.08-5.52,0-4.18.23-6.74,3-7.23,6.89a9.59,9.59,0,0,0,0,1.2q0,30.71,0,61.42a6.51,6.51,0,0,0,.46,3c1.38,2.9,2,3.29,5.14,3.09,1.1-.07,1.6-.52,1.67-1.57.11-1.76.4-3.49.65-5.23.66-4.57,1-9.2,1.74-13.76.41-2.61.54-5.25,1.09-7.83a5.27,5.27,0,0,0,.18-1.42,2.05,2.05,0,0,0-2.12-2c-.56,0-1.12,0-1.68,0-4.2,0-4.2,0-4.22-1.45s0-1.56,4.34-1.56h14.4a11.36,11.36,0,0,0,1.43,0c1.27-.14,1.44.56,1.43,1.6s-.26,1.5-1.35,1.43-1.94.1-2.88,0c-2-.28-3.08.81-4.11,2.25-1.62,2.29-1.56,5-2,7.56-.8,5.2-1.42,10.43-2.14,15.65a34.09,34.09,0,0,1-.62,5.23c-.26.86.27,1.16,1,1.16,3.52,0,7,.19,10.55-.06a5.9,5.9,0,0,0,5.24-4.51,20.33,20.33,0,0,0,.62-5.18c0-.82.17-1.38,1.17-1.38s1.1.67,1.1,1.44c0,3.68,0,7.36,0,11,0,1.67-.05,1.71-1.77,1.72-5.36,0-10.72,0-16.08,0-2.45,0-2.54.07-2.81,2.48-.82,7.37-1.86,14.71-2.9,22.06-.64,4.58-1.07,9.19-1.68,13.78s-1.32,9.16-2,13.74c-.34,2.45-.75,4.9-.91,7.37s-1.08,4.85-.83,7.36a.7.7,0,0,1-.39.8.84.84,0,0,1-1-.39,4.25,4.25,0,0,1-.68-1C92.22,180.88,86,166.32,80,151.68A6.06,6.06,0,0,0,78.81,149.52Zm-26.95-20c2.5,18.28,4.75,36.42,7.52,54.54A30.88,30.88,0,0,0,62.23,178q7.44-18,14.93-35.89a8.77,8.77,0,0,1,1.06-1.86c.68-.94,1.13-.87,1.71.19A52.64,52.64,0,0,1,82.79,147c3.1,8.1,6.59,16,9.8,24.09,1.24,3.11,2.53,6.19,3.79,9.29.16.39.37.78.81.75s.51-.55.5-.93a33.25,33.25,0,0,1,.72-5c.81-6.41,1.49-12.84,2.41-19.23.34-2.29.59-4.59.91-6.88.67-4.9,1.39-9.79,1.94-14.71.17-1.56.83-3.08.59-4.82ZM76.22,88.48V55.86c0-2.64-1-3.69-3.55-4.57a12.9,12.9,0,0,0-4.47-.56c-3.45,0-5.25,1.86-5.25,5.34q0,10.44,0,20.87,0,21.47,0,42.93a9.92,9.92,0,0,0,1.22,4.79A2.85,2.85,0,0,0,67,126.37c1.35-.08,2.72,0,4.07,0,3.15,0,3.7-.38,4.86-3.14a6.52,6.52,0,0,0,.24-2.59Q76.22,104.54,76.22,88.48Zm4.54-.06v31.9c0,.56,0,1.12,0,1.68a4.37,4.37,0,0,0,4.59,4.35c1.28,0,2.56,0,3.84,0a3.12,3.12,0,0,0,3.17-2.09,10.7,10.7,0,0,0,1-4.39q-.06-32,0-64v-1a3.42,3.42,0,0,0-2.44-3.44,7.84,7.84,0,0,0-5.8-.2c-3.67,1.27-4.3,1.93-4.3,5.76Q80.76,72.71,80.76,88.42Z" transform="translate(-16.21 -7.7)"/><path class="cls-1" d="M82.21,39.11a4.38,4.38,0,0,1-3.9,4.12,4.3,4.3,0,0,1-4.25-4,4.37,4.37,0,0,1,3.88-4.15A4.43,4.43,0,0,1,82.21,39.11Z" transform="translate(-16.21 -7.7)"/><path class="cls-1" d="M44.77,87.05a4.08,4.08,0,1,1-.11-8.15,4.08,4.08,0,0,1,.11,8.15Z" transform="translate(-16.21 -7.7)"/><path class="cls-1" d="M115.58,82.88a4.36,4.36,0,0,1-3.85,4.17,4.49,4.49,0,0,1-4.3-4,4.08,4.08,0,0,1,8.15-.18Z" transform="translate(-16.21 -7.7)"/></svg>